<?xml version="1.0" encoding="UTF-8"?>
<svg id="Layer_1" data-name="Layer 1" xmlns="http://www.w3.org/2000/svg" viewBox="0 0 512 341.82">
  <g>
    <path d="M85.31,84.32c-.94.11-1.97.44-3.29.55-2.14.18-18.07.38-18.94,0-1.57-.69-.3-3.84-1.1-4.39s-6.39,1.21-7.41-1.92c-.57-1.75-.57-35.04,0-36.79.04-.13,1.79-1.88,1.92-1.92,1.59-.52,31.89-.48,33.49,0,.48.14,1.81,2.05,2.47,2.47-1.83,8.96,2.27,28.04,0,35.69-1.34,4.5-8.99-.26-7.14,6.31Z" fill="#ffca1c"/>
    <g>
      <polygon points="57.03 41.49 90.25 42.32 89.98 78.28 56.21 78 57.03 41.49" fill="#fff"/>
      <path d="M72.13,70.04c-1.86,2.07-8.4,2.29-9.88-.27-.85-1.47,1.97-9,3.84-9.61.91,1.77,5.81.97,6.59,3.02.29.76-.04,6.29-.55,6.86Z" fill="#fdf5ea"/>
      <path d="M72.13,70.04c.51-.57.84-6.1.55-6.86-.78-2.05-5.68-1.25-6.59-3.02,2.81-.92,6.07,1.3,6.31,1.1.76-.63-.07-4.13.27-5.22.65-2.06,3.57-2.94,3.84-3.84,1.56-5.16-12.99-3.82-4.94.55-.23,2.1-6.43-1.11-3.57-4.12,2.81-1.32,7.63-2.14,9.61.27,2.6,4.25-2.75,5.76-3.29,7.69-.16.58-.33,11.57,0,12.08.63.95,5.5-.67,6.59,1.1l-8.78.27Z" fill="#6b1e57"/>
    </g>
  </g>
  <g>
    <path d="M377.95,15.69c-23.44,28.44,13.54,66.19,42.82,44.47,33.46,37.56,63.33,79.39,77.96,128.2,14.35,47.89,19.13,104.9,3.84,152.91l-78.51-2.2c2.69-.47,12.39-3.26,13.18-5.76,1.27-4.02-2.09-5.44-2.2-5.76-.15-.46-.4-.64-.55-1.1-4.01-12.56-7.08-26.16-10.43-38.98l3.29-4.67v-105.96c4.95-6.7,6.78-15.07,3.84-23.06-.6-1.64-3.56-4.28-3.84-5.49-2.4-10.27,2.77-33.26-.55-42.82-.55-1.59-3.52-4.3-5.22-4.67h-74.67c.18-12.26-10.16-7.82-18.39-9.06-1.22-1.72,1.62-26.86-1.1-32.67-.54-1.16-.69-1.92-1.92-2.75-29.17-2.53-59.39-.39-88.94-1.1-4.45-3.27-8.78-13.07-14.27-13.73-4.98-.59-36.8-.27-41.18.55-.42.08-1.85,1.29-2.47,1.65,1.32-5.52,13.46-1.27,16.2-2.75,1.28-.69-1.38-2.85-1.37-3.02.24-3.49,37.11-23.85,42.55-26.08,37.27-15.28,92.75-17.04,127.93,2.2,1.34.73,6.77,6.7,8.78,6.59,1.79-.1,2.71-5.02,5.22-4.94Z" fill="#d25191" opacity=".5"/>
    <g>
      <path d="M178.1,44.24l-1.65,55.73-67.26,1.37c-8.07,3.25-2.05,27.34-4.12,34.31-.3,1.02-2.02.67-2.2,1.1,1.76,2.53,5.13,1.14,7.69.82.9-.11,1.97-.55,2.2-.55.06,0-.04.86,1.1.55-.02,1.1.02,2.17,0,3.29-.62-1.47-1.04,0-1.1,0-1.5.1-4.57-.37-6.04,0-.47.12-1.36-.27-1.65.27,2.12,30.52-3.07,65.22.55,95.26.02.18-.02.37,0,.55.18,1.43,2,3.22,2.2,4.67.81,6.06-2.19,10.07-2.75,15.65-.38,3.82-.71,23.14,0,26.08.3,1.26,3.4,4.36,4.67,4.67h106.51l.82,31.57c-12.77,1.02-29.88-3.3-34.59,12.63l2.2.82v6.59H10.92l-.27,2.2-1.65-.82c1.26-2.59-1.29-7.68-2.2-11.53C.44,302.36-1.15,276.66.76,248.75l.82,4.67,4.12-1.1c2.01,3.39,7.04,7.94,10.71,9.33,4.74,1.8,13.97,1.04,16.47,2.75,3.62,2.48.33,6.15.82,9.61.98,6.9,12.35,7.22,17.57,7.41,1.43.05,2.08-.55,2.2-.55.87.01,4.57-.25,4.94.27l.55,23.33c-5.57.08-11.17-.06-16.75,0-1.11.66-.66,1.36-.82,2.2-1.81,9.07,1.5,23.89,5.22,32.39h32.94c5.99-10.36,4.86-21.03,5.22-32.39,0-.15,2.26-.74.27-2.2-5.76-.06-11.54.08-17.29,0,.8-7.5-1.07-17.21,0-24.43.07-.45,1.09-.76,1.1-.82,1.2,1.27,2.09.02,2.2,0,14.59-2.32,4.19-10.15,9.06-13.18,1.29-.8,7.95-.61,10.98-1.65,15.25-5.22,20.33-33.7.82-24.16-2.52-.06-.21-5.09-.55-7.96-.18-1.48-1.48-6.98-3.02-7.41-5.37-.95-17.01,12.76-16.75,16.75.03.53,1.93-.2,1.65,1.1-2.56-.13-2.88,4.54-4.12,6.31.7-4.82,2.37-10.09,4.67-14.55l-2.75,1.65c2.84-1.52,11.69-21.71,7.96-22.24-7.91,8.34-15.53,21.05-12.63,32.94l4.67-9.61c-6.81,12.14-3.41,25.37-5.22,38.71-.95-11.43.77-23.02-1.37-34.31-.37-1.94-3.14-5.46-3.29-7.14-.41-4.33,2.19-8.72.55-14.82-2.65-9.87-24.51-26.95-34.86-23.88-4.16,1.23-3.7,12.66-3.57,16.2,6.56-.15,11.98,2.41,17.02,6.31-4.95-2.77-10.38-5.63-16.2-4.94-2.47,2.99,5.17,20,7.69,20.86,1.65.57,7.89.26,10.98,1.1,3.7,1.01,7.21,3.49,10.43,5.49-4.36-14.88-12.66-28.55-23.33-39.81,8.21,5.22,12.61,15.5,17.84,23.33,2.65.29,1.32-11.56,2.47-12.9,1.72,4.14-1.87,12.76-1.65,15.37.1,1.17,5.22,10.93,6.04,13.18.71,1.96,3.3,13.77,3.84,14.27l2.2-2.2c-1.61,3.62-1.53,4.95-1.1,8.78.12,1.11,1.62.25,1.65.55.09.96-1.12,1.42-1.1,1.65.27,3.47.83,6.9.55,10.43l-.55-5.49c-.49-.85-1.2-1.62-1.65-2.47.74-.09,1.02-.68,1.1-1.37.13-1.21-4.23-19.69-4.94-20.86-2.38-3.92-16.6-9.87-21.41-7.69,2.92,1.08,17.21,16.21,17.02,17.57-.07.46-6.48,4.59-6.31,6.86-.24.05-2.69-3.33-3.02-3.84-.43-.66-.37-3.52-2.2-2.2-2-7.5-16.99-18.68-24.43-20.86-.79.31.59,1.98.82,2.2-3.35-2.38-8.39-4.44-11.53,0-.96-4-.07-8.41.55-12.35,6.13-38.93,26.01-82,52.16-111.45,1.69-1.9,14.55-15.51,15.65-15.65,1.33-.17,1.76,2.55,3.02,1.1.85-.98.4-2.55.55-2.75,2.3-3,7.04-4.63,6.59-9.33,1.32-.11,2.36-.44,3.29-.55,11.33-1.28,20.27-2.85,31.57-3.29,2.83-.11,6.76,1.13,7.14,1.1.68-.06-.68-1.03,0-1.1,13.12-1.39,22.39-3.36,33.49-10.98,1.87-1.28,17.01-14.35,17.57-15.37,1.88-3.44-2.32-5.78,3.02-10.43Z" fill="#d25191" opacity=".5"/>
      <g>
        <path d="M75.43,94.2c-.15.2.31,1.76-.55,2.75l-1.1-3.57c.82-1.26,1.65-.64,1.65.82Z" fill="#020c16"/>
        <path d="M96.56,180.95c3.87-.13,1.23,10.47.27,12.9-2.6,6.59-8.73,10.77-13.45,15.65-2.03-6.22-.56-14.76,3.02-20.04,1-1.47,8.83-8.47,10.16-8.51Z" fill="#7bbda8"/>
        <path d="M93.27,132.08c.25-.13,4.09,2.54,4.67,3.02-1.21,1.63-6.5-2.04-4.67-3.02Z" fill="#0a1f35"/>
        <path d="M74.6,107.93l.55,4.39c-1.76-.1-1.73-4.39-.55-4.39Z" fill="#0a1f35"/>
        <path d="M75.7,118.91l1.65,2.75c-1.82.26-2.43-1.3-1.65-2.75Z" fill="#020c16"/>
      </g>
    </g>
    <g>
      <g>
        <path d="M15.03,235.3c7.6,5.39,15.64,14.92,21.41,22.24l-18.94-9.06-8.51.27c3.82.34,7.52.32,11.26,1.37,1.09.31,15.75,7.66,16.47,8.24,4.97,3.96,11.48,17.18,14.55,23.06-5.22-.19-16.59-.51-17.57-7.41-.49-3.46,2.8-7.13-.82-9.61-2.5-1.71-11.73-.95-16.47-2.75-3.67-1.39-8.7-5.94-10.71-9.33-2.36-3.99-5.12-12.88-2.2-17.02,3.14-4.44,8.18-2.38,11.53,0Z" fill="#7bbda8"/>
        <path d="M38.64,253.97c.48,1.8.96,3.63.27,5.49-2.94-3.88-5.74-8.24-9.06-11.8-4.73-5.09-10.26-8.14-14.82-12.35-.23-.21-1.61-1.88-.82-2.2,7.44,2.18,22.43,13.36,24.43,20.86Z" fill="#7bbda8"/>
        <path d="M38.64,253.97c1.82-1.32,1.77,1.53,2.2,2.2-3.04,2.39,4.17,13.4,5.76,14.27,2.83,1.55,10.73.93,13.45,4.67l-12.9-3.57,6.31,9.33c-.11,0-.76.6-2.2.55-3.07-5.88-9.57-19.1-14.55-23.06-.72-.57-15.38-7.93-16.47-8.24-3.73-1.06-7.44-1.03-11.26-1.37l8.51-.27,18.94,9.06c-5.77-7.32-13.82-16.85-21.41-22.24,4.56,4.21,10.09,7.27,14.82,12.35,3.32,3.56,6.11,7.93,9.06,11.8.69-1.86.2-3.69-.27-5.49Z" fill="#d0e5df"/>
      </g>
      <g>
        <path d="M84.76,306.68c-.35,11.36.78,22.04-5.22,32.39h-32.94c-3.71-8.5-7.03-23.32-5.22-32.39h43.37Z" fill="#fff"/>
        <path d="M58.96,304.48c.54,0,1.1,0,1.65,0,1.82-.03,3.67-.02,5.49,0,.54,0,1.1,0,1.65,0,5.76.08,11.53-.06,17.29,0,1.99,1.45-.27,2.05-.27,2.2h-43.37c.17-.84-.28-1.53.82-2.2,5.58-.06,11.17.08,16.75,0Z" fill="#ffca1c"/>
      </g>
      <path d="M66.09,304.48c-1.82-.02-3.67-.03-5.49,0,1-4.44-1.33-20.3,0-23.33.59-1.36,3.45-.49,4.67-1.37l.82,24.71Z" fill="#d25191" opacity=".5"/>
      <g>
        <path d="M71.03,279.23c-1.99.29-.11-4.46,0-4.67,1-1.9,10.32-16.31,11.26-16.75,3.62-1.67,9.92-.07,13.45,1.37-.77-3.29-12.13-2.66-12.08-3.29,4.23-4.85,10.84-8.76,17.57-7.69l-3.02-1.37-7.41,1.92c-.21-.64,9.12-8.66,10.71-7.41l-2.2-1.1-17.02,15.92c-.51-4.03,2.14-7.25,3.02-10.98.49-.54,5.97-4.64,6.59-4.94,19.51-9.55,14.43,18.94-.82,24.16-3.03,1.04-9.69.84-10.98,1.65-4.87,3.02,5.53,10.86-9.06,13.18Z" fill="#5ea899"/>
        <path d="M71.03,279.23c-.11.02-1,1.27-2.2,0,.64-3.55,1.7-8.56,3.84-11.53-.06,1.2-1.17,2.49-.27,3.84,2.52-4.75,5.71-8.28,4.67-14l1.37,4.12c4.17-4.49,2.26-10.44,5.76-15.37.4-.56.73-.69,1.1-1.1-.88,3.73-3.53,6.95-3.02,10.98l17.02-15.92,2.2,1.1c-1.59-1.25-10.91,6.77-10.71,7.41l7.41-1.92,3.02,1.37c-6.73-1.07-13.34,2.84-17.57,7.69-.05.64,11.31,0,12.08,3.29-3.53-1.44-9.84-3.05-13.45-1.37-.94.43-10.25,14.84-11.26,16.75-.11.21-1.99,4.96,0,4.67Z" fill="#d0e5df"/>
        <path d="M84.21,246.28c-3.51,4.94-1.59,10.88-5.76,15.37l-1.37-4.12c1.05,5.72-2.15,9.25-4.67,14-.9-1.35.22-2.65.27-3.84.14-2.85-.03-7.91,1.1-10.43.84-1.89,8.08-8.87,9.88-10.98h.55Z" fill="#5ea899"/>
      </g>
      <g>
        <path d="M91.9,240.24c-.61.3-6.1,4.4-6.59,4.94-.37.41-.7.53-1.1,1.1h-.55c-.45-2.73-6.21-.11-6.59.82-1.17,2.91,2.45,7.83-6.59,7.69l3.29,2.47c-1.13,2.52-.96,7.58-1.1,10.43-2.15,2.97-3.2,7.98-3.84,11.53-.01.07-1.03.38-1.1.82-1.07,7.22.8,16.93,0,24.43-.54,0-1.1,0-1.65,0l-.82-24.71c-1.22.88-4.07.02-4.67,1.37-1.33,3.04,1,18.89,0,23.33-.54,0-1.1,0-1.65,0l-.55-23.33c-.37-.53-4.07-.26-4.94-.27l-6.31-9.33,12.9,3.57c-2.72-3.73-10.62-3.12-13.45-4.67-1.6-.87-8.81-11.89-5.76-14.27.33.51,2.78,3.89,3.02,3.84-.17-2.27,6.25-6.4,6.31-6.86.19-1.36-14.1-16.49-17.02-17.57,4.81-2.19,19.03,3.77,21.41,7.69.71,1.18,5.07,19.65,4.94,20.86-.07.69-.36,1.28-1.1,1.37-2.42-4.62-5.87-5.28-10.98-4.67,4.51,1.12,8,.76,10.98,4.67.45.86,1.16,1.62,1.65,2.47l.55,5.49c.28-3.53-.28-6.96-.55-10.43-.02-.22,1.19-.68,1.1-1.65-.03-.3-1.52.56-1.65-.55-.43-3.84-.51-5.16,1.1-8.78l-2.2,2.2c-.54-.5-3.13-12.32-3.84-14.27-.82-2.25-5.94-12.01-6.04-13.18-.22-2.61,3.36-11.24,1.65-15.37-1.15,1.35.18,13.19-2.47,12.9-5.24-7.84-9.63-18.12-17.84-23.33,10.67,11.25,18.98,24.93,23.33,39.81-3.22-2-6.73-4.48-10.43-5.49-3.09-.84-9.33-.53-10.98-1.1-2.51-.86-10.16-17.87-7.69-20.86,5.82-.69,11.25,2.17,16.2,4.94.79.62,1.5,3.04,3.29,1.92-.77-1.03-2.34-1.39-3.29-1.92-5.04-3.9-10.46-6.47-17.02-6.31-.13-3.53-.59-14.96,3.57-16.2,10.35-3.07,32.22,14.01,34.86,23.88,1.64,6.11-.96,10.5-.55,14.82.16,1.68,2.92,5.19,3.29,7.14,2.14,11.29.42,22.88,1.37,34.31,1.8-13.34-1.59-26.57,5.22-38.71l-4.67,9.61c-2.9-11.9,4.72-24.6,12.63-32.94,3.72.52-5.12,20.72-7.96,22.24l2.75-1.65c-2.3,4.46-3.96,9.73-4.67,14.55,1.23-1.78,1.56-6.44,4.12-6.31.28-1.29-1.61-.57-1.65-1.1-.26-3.99,11.38-17.69,16.75-16.75,1.54.43,2.84,5.93,3.02,7.41.34,2.87-1.97,7.9.55,7.96Z" fill="#7bbda8"/>
        <g>
          <path d="M83.66,246.28c-1.81,2.11-9.04,9.09-9.88,10.98l-3.29-2.47c9.04.14,5.42-4.78,6.59-7.69.37-.93,6.14-3.56,6.59-.82Z" fill="#fff"/>
          <path d="M78.45,231.46c.9,5.9-1.77,10.24-4.39,15.37l4.39-15.37Z" fill="#add1c7"/>
          <polygon points="81.74 238.05 87.51 238.87 79 239.69 81.74 238.05" fill="#add1c7"/>
          <g>
            <path d="M58.41,265.5c-2.98-3.91-6.47-3.55-10.98-4.67,5.11-.61,8.56.05,10.98,4.67Z" fill="#d0e5df"/>
            <path d="M40.29,218.28c.95.53,2.53.89,3.29,1.92-1.8,1.12-2.5-1.31-3.29-1.92Z" fill="#d25191" opacity=".5"/>
          </g>
        </g>
      </g>
    </g>
    <g>
      <g>
        <path d="M327.43,59.06l-1.1.55c-.63-1.34-1.86-1.98-3.02-2.75h-87.85c-2.44-2.31-9.48-13.08-12.08-13.73-2-.5-39.01-.49-41.18,0-1.78.41-4.52,2.84-4.12,4.94l-.55,116.12c.8,2.39,3.29,6.8,6.04,4.39l-.55-98.83,3.02-4.12,135.06-.55c2.8.55,6.96,4.26,3.57,7.14-.17-2.85-.2-4.1-3.02-5.49h-134.51l-2.47,2.47c-.16,14.91.21,29.84,0,44.75-.16,11.12-2.7,39.43-.55,48.59.02.08.82,1.68,1.1,1.1.23-1.83,1.01-3.52,1.65-5.22,4.37-11.54,7.96-23.5,12.08-35.14.19-.54.36-1.12.55-1.65,2.52-7.1,6.09-19.73,9.33-25.8h1.65c-9.5,24.35-16.76,49.62-25.8,74.12-.26.7-.91.95-1.1,1.65-3.29-1.66-5.94-2.13-7.14-6.31l-.27-52.43h-59.3c-4.58,1.41-2.95,20.18-3.02,24.71-1.13.31-1.04-.55-1.1-.55.97-5.45-2.5-22.83,3.02-25.26l59.84-.55c1.09-.48,1.13-7.83.82-8.51-1.3-2.92-56.81.53-63.96-.82-2.13.39-5.25,2.53-5.76,4.67-.35,1.44-1.14,28.29-.55,29.65.49,1.12,3.81.34,4.39,1.37-2.56.31-5.93,1.71-7.69-.82.17-.42,1.89-.08,2.2-1.1,2.07-6.97-3.96-31.07,4.12-34.31l67.26-1.37,1.65-55.73s-.09-.18.55-.55,2.05-1.57,2.47-1.65c4.38-.82,36.2-1.14,41.18-.55,5.5.65,9.83,10.46,14.27,13.73,29.55.71,59.77-1.44,88.94,1.1,1.23.83,1.38,1.59,1.92,2.75Z" fill="#0a1f35"/>
        <path d="M326.34,60.16c2.47,7.81-.71,22.96.55,31.57-.9.97-2.43-.32-2.75-.27-.83-5.93.88-13.63.55-19.22,3.39-2.88-.77-6.59-3.57-7.14l-135.06.55-3.02,4.12.55,98.83c-2.74,2.41-5.24-2-6.04-4.39l.55-116.12c1.04.02,2.72-2.13,3.02-2.2,11.08-2.37,30.82,1.77,42.82,0l11.53,13.18h88.39l2.47,1.1Z" fill="#ffca1c"/>
        <path d="M326.34,59.61c.07.14-.06.37,0,.55l-2.47-1.1h-88.39l-11.53-13.18c-12.01,1.77-31.74-2.37-42.82,0-.3.06-1.98,2.22-3.02,2.2-.4-2.1,2.33-4.54,4.12-4.94,2.17-.49,39.18-.5,41.18,0,2.6.65,9.64,11.42,12.08,13.73h87.85c1.16.76,2.39,1.41,3.02,2.75Z" fill="#fff"/>
        <g>
          <path d="M343.91,95.85l-127.1.55-4.12,3.57-24.71,72.2-3.29-2.2c9.04-24.5,16.31-49.77,25.8-74.12l3.02-2.2,126.28-.55c2.11.82,2.8.64,4.12,2.75Z" fill="#fff"/>
          <path d="M187.98,172.16l24.71-72.2,4.12-3.57,127.1-.55c.96,1.52,1.46,1.4,1.1,4.12l-18.12,48.32c-2.57,2.5-22.85-.77-27.73,1.37-6.1,2.68-1,17.64-2.75,23.06l-108.43-.55Z" fill="#ffca1c"/>
        </g>
        <path d="M211.04,93.65c-.16.07-.41-.07-.55,0-3.77,2.09-4.07,9.2-5.76,9.88-.66.27-13.62.29-14.27,0v-12.63l21.96.55-1.37,2.2Z" fill="#9ad2db"/>
        <g>
          <path d="M324.69,72.24c.33,5.58-1.38,13.29-.55,19.22-24.61,3.64-97.01-4.8-113.1,2.2l1.37-2.2-21.96-.55v12.63c.65.29,13.61.27,14.27,0,1.69-.69,1.99-7.8,5.76-9.88-.39.88-1.19,1.33-1.65,2.2-3.25,6.08-6.81,18.7-9.33,25.8l-11.53.27c-.64,2.44,9.44.99,10.98,1.37-4.12,11.64-7.7,23.6-12.08,35.14-1.32-.07-1.59-4.86-1.65-5.76-.69-10.97.14-23.29.55-34.31,4.29.24,15.71,3.01,14.55-3.29h-14.55c-.01-.08-.83-1.02-1.1-1.1.21-14.9-.16-29.84,0-44.75l2.47-2.47h134.51c2.81,1.39,2.85,2.64,3.02,5.49Z" fill="#fff"/>
          <g>
            <path d="M185.78,115.06c.15.86.04,2.33,0,3.29-.41,11.02-1.24,23.35-.55,34.31.06.9.33,5.69,1.65,5.76-.64,1.69-1.42,3.38-1.65,5.22-.28.58-1.08-1.02-1.1-1.1-2.15-9.16.39-37.47.55-48.59.26.08,1.08,1.02,1.1,1.1Z" fill="#fbef7b"/>
            <path d="M199.51,121.65c-.19.53-.36,1.11-.55,1.65-1.54-.39-11.62,1.06-10.98-1.37l11.53-.27Z" fill="#429ec9"/>
            <polygon points="190.45 82.67 317.55 84.04 190.45 84.87 190.45 82.67" fill="#429ec9"/>
            <polygon points="194.29 74.98 317 76.36 194.29 77.18 194.29 74.98" fill="#429ec9"/>
            <path d="M185.78,118.36c.04-.96.15-2.44,0-3.29h14.55c1.16,6.3-10.26,3.53-14.55,3.29Z" fill="#d25191" opacity=".5"/>
            <path d="M188.8,139.22c2.05-.9,3.54,2.02,1.65,2.75-1.54.59-3.77-1.81-1.65-2.75Z" fill="#429ec9"/>
          </g>
        </g>
      </g>
      <g>
        <path d="M424.06,287.46c-.34-1.29.05-1.44,0-1.65,2.68-3.34,1.58-8.83,1.65-13.18.5-31.08-.15-62.25-.27-93.34l-5.76,4.67.55,83.45-1.1,2.47c-.25-1.92-.43-3.54-.55-5.49-1.6-25.86,1.2-53.31,0-79.34-.35-.61-6.03,1.55-6.59,1.92-.57-7.79-1.35-12.58-5.49-19.22-2.83-4.54-5.34-7.68-10.98-8.78.61-5.16-4.92-11.29,1.65-15.1-.77-1.53-2.36.32-2.47.27-.87-.37-1.48-4.05-2.47-5.22-2.64-3.12-9.64-7.48-13.73-5.76.64-2.15-.24-4.09,3.02-6.04,11.85-7.08,17.47,6.91,25.26,11.53,3.2,1.9,7.65,2.62,10.98,4.39,1.22-.45,1.26-24.1.82-26.08-.38-1.72-1.82-2.97-3.02-4.12h-74.12l-13.45,35.96c5.93,3.94,6.32,16.64,6.04,23.33-.08,1.99-.03,5.06-1.65,6.59-.65.62-1.89.86-2.75,1.1-7.76,2.13-19.73-1.29-28,0-2.58-2.04-3.97-2.42-5.22-6.04l-108.71.55c-1.55-.57-2.72-2.04-4.12-2.75.19-.7.84-.95,1.1-1.65l3.29,2.2,108.43.55c1.75-5.42-3.35-20.38,2.75-23.06,4.87-2.14,25.16,1.13,27.73-1.37l18.12-48.32c.36-2.72-.14-2.59-1.1-4.12-1.32-2.1-2.01-1.93-4.12-2.75l-126.28.55-3.02,2.2h-1.65c.46-.86,1.26-1.31,1.65-2.2.14-.07.39.07.55,0,16.09-7,88.49,1.45,113.1-2.2.31-.05,1.84,1.25,2.75.27-1.26-8.61,1.92-23.76-.55-31.57-.06-.18.07-.41,0-.55l1.1-.55c2.72,5.8-.12,30.95,1.1,32.67,8.23,1.24,18.58-3.2,18.39,9.06h74.67c1.7.37,4.66,3.07,5.22,4.67,3.32,9.57-1.85,32.55.55,42.82.28,1.21,3.24,3.85,3.84,5.49,2.94,7.99,1.1,16.36-3.84,23.06v105.96l-3.29,4.67Z" fill="#0a1f35"/>
        <path d="M348.57,101.89l73.57.55c.91,1.12,3.23,2.76,3.57,4.12,2.37,9.51-1.78,29.45,0,40.08-1.49-.92-5.51-2.11-6.04-3.84-1.77-5.78,1.73-22.06,0-28-.16-.55-2.54-2.26-3.02-3.02l-73.57-.55c-1.37-.54,1.84-10.56,5.49-9.33Z" fill="#6b1e57"/>
        <g>
          <path d="M301.9,150.2c2.01-.43,24.95.47,26.35,1.1,4.08,1.82,5.26,22.36,3.57,25.53-.26.48-2.02,1.81-2.47,1.92-1.9.48-26.58.09-28-.55-.74-.34-2.86-3.38-3.02-4.12-.26-1.18-1.24-18.26-1.1-19.22.29-1.9,2.8-4.26,4.67-4.67Z" fill="#fff"/>
          <path d="M300.81,171.61c2.38.39,29.37-.85,29.37.82l-15.1.82-14.27-1.65Z" fill="#429ec9"/>
          <path d="M300.26,155.14c9.74.45,19.72-.97,29.37.82l-15.65.82-13.73-1.65Z" fill="#429ec9"/>
          <path d="M300.81,163.38c2.32.39,28.27-.84,28.28.82l-15.1.82-13.18-1.65Z" fill="#429ec9"/>
        </g>
      </g>
      <g>
        <path d="M424.06,339.07c-.07.01.39-1.27-.82-1.1-2.64.38-5.23,1.46-9.06,1.65,2.27-5.32,6.13-5.22,10.43-6.59,3.66-1.17,9.71-.09,10.43-5.49.1.32,3.46,1.74,2.2,5.76-.79,2.5-10.48,5.29-13.18,5.76Z" fill="#2d5269"/>
        <path d="M435.05,327.54c-.72,5.4-6.77,4.32-10.43,5.49v-3.29l9.88-3.29c.15.46.4.64.55,1.1Z" fill="#f6d3c0"/>
        <path d="M362.57,338.52c3.71-1.26,5.2-3.29,10.43-4.39,3.52-.74,7.58,1.08,10.98-2.2.78,11.22-13.66,6.45-21.41,6.59Z" fill="#2d5269"/>
        <path d="M384.53,329.74c.05.49-.54.56-.55,1.1,0,.36-.02.74,0,1.1-3.4,3.27-7.47,1.45-10.98,2.2.09-.62,2.53-3.75,2.75-3.84,1.42-.58,7.01-.17,8.78-.55Z" fill="#f6d3c0"/>
        <path d="M383.44,158.44c.57,14.5,11.56,4.88,12.08.55,5.64,1.1,8.15,4.25,10.98,8.78-1.62.73-1.82,1.38-2.2,3.02-1.3,5.74.61,16.44,1.1,21.69.57,6.04-.79,12.12,2.2,17.84.9,1.73,4.52,2.97,3.84,5.49-1.2,1.78-1.3.82-2.2.82-12.37.07-24.67-.44-37.06,1.1-.05,1.11-.68,2.45-.82,3.29-7.58-.6-4.51-7.59-6.04-12.63.8.13,6.37.17,6.86,0,2.18-.75,15.13-17.95,14-20.59-2.73.91-7.95-3.05-10.16-2.47s-4.65,10.88-6.59,11.53c-1.56.52-4.47-.59-5.22-.55.29-5.09-.29-9.92,1.65-14.82.79-1.41,4.46-5.94,4.39-6.31s-4.98-4.17-4.39-6.31c5.61-3.69,10.62-9.3,17.57-10.43Z" fill="#6b1e57"/>
        <g>
          <path d="M409.24,216.64l9.33,47.77c.12,1.95.3,3.57.55,5.49.42,3.24,1.07,2.57,1.1,2.75,1,5.48,2.69,8.71,3.84,13.18.05.21-.34.36,0,1.65,3.35,12.82,6.42,26.42,10.43,38.98l-9.88,3.29c-5.98-6.72-13.02-37.37-18.12-41.73-.7-.6-.11-.77-1.65-1.1,1.85-1.07.51-3.2,0-4.67-.84-2.39-3.33-9.07-5.49-9.61.87-1.1.05-.97,0-1.65-.34-4.28-4.15-11.82-6.59-15.37-.49-5.4-7.02-16.84-9.33-22.24l8.24,35.96c-.02.54.02,1.1,0,1.65-.04,1.07.57,1.21.55,1.65-.16,3.65-.84,9.7-1.1,14.27-.04.73,0,1.04,0,1.1-.03.44-1.08,2.77-1.1,3.02-.91,12.6-.97,25.3-2.2,37.88-1.11.08-2.31.61-3.29.82-1.77.38-7.37-.03-8.78.55l-4.39-42.28c.8.02.46-.63.55-1.1.75-4.11-.55-9.21,0-13.45l-1.1-.82c.37-.67.48-.83.55-1.65,1.28-14.99-2.3-36.09,0-49.96.14-.85.77-2.19.82-3.29,12.39-1.54,24.69-1.03,37.06-1.1Z" fill="#237a9e"/>
          <path d="M392.77,255.62c.33,3.66-.94,9.7-1.1,13.73l-8.24-35.96c2.31,5.4,8.85,16.83,9.33,22.24Z" fill="#0a1f35"/>
        </g>
        <path d="M399.36,270.99h-7.69c.02-.54-.02-1.1,0-1.65.15-4.03,1.43-10.06,1.1-13.73,2.44,3.56,6.24,11.09,6.59,15.37Z" fill="#fff"/>
        <path d="M395.51,158.99c-.52,4.34-11.51,13.95-12.08-.55-.03-.86,1.2-4.67.55-5.76-.13-.22-2.8-.67-4.39-2.75-3.95-5.15-2.66-11.49-1.1-16.75,4.08-1.71,11.08,2.64,13.73,5.76.99,1.17,1.6,4.84,2.47,5.22.11.05,1.7-1.81,2.47-.27-6.56,3.81-1.03,9.94-1.65,15.1Z" fill="#f6d3c0"/>
        <path d="M365.87,168.87c-.59,2.14,4.33,5.94,4.39,6.31s-3.6,4.9-4.39,6.31c-1.02,1.81-2.7,6.91-3.02,7.14-5.69,4.05-25.08-6-30.47-9.88,1.62-1.53,1.56-4.6,1.65-6.59,5.87,1,14.73,6.42,20.59,4.94,2.01-.51,5.21-5.31,7.14-6.59.94-.62,3.4-1.17,4.12-1.65Z" fill="#6b1e57"/>
        <path d="M365.87,181.5c-1.94,4.91-1.35,9.73-1.65,14.82-7.5.43-15.02.44-22.51,1.1-.18.02-.37-.02-.55,0-.23-2.32,3.77-7.85,3.29-9.61-.65-2.43-12.72-5.95-14.82-7.96.86-.24,2.09-.48,2.75-1.1,5.39,3.88,24.78,13.94,30.47,9.88.32-.22,2-5.33,3.02-7.14Z" fill="#fff"/>
        <path d="M411.99,186.99c-1.47.97-3.32,5.21-6.59,5.49-.49-5.24-2.4-15.94-1.1-21.69.37-1.64.58-2.29,2.2-3.02,4.14,6.63,4.92,11.42,5.49,19.22Z" fill="#6b1e57"/>
        <path d="M365.32,208.4c-.09-.01.05-1.48-.82-1.65-8.02-1.49-16.4-3.23-24.43-4.39l1.65-4.94c7.49-.66,15.01-.67,22.51-1.1.75-.04,3.65,1.07,5.22.55,1.94-.65,4.44-10.97,6.59-11.53s7.43,3.38,10.16,2.47c1.13,2.63-11.82,19.84-14,20.59-.49.17-6.06.13-6.86,0Z" fill="#6b1e57"/>
        <path d="M341.16,197.42c.18-.02.37.02.55,0l-1.65,4.94c-2.55-.37-5.47,1.12-5.76,1.1-1.14-.09-5.47-5.63-5.76-6.59-.04-.13.3-2.33.27-2.75,3.96,8.09,6.98,3.82,12.35,3.29Z" fill="#f6d3c0"/>
        <g>
          <path d="M329.63,179.85c2.1,2.01,14.17,5.53,14.82,7.96.47,1.76-3.52,7.29-3.29,9.61-5.38.52-8.39,4.8-12.35-3.29.03.41-.31,2.61-.27,2.75-9.04-5.34-18.65-10.49-26.9-17.02,8.27-1.29,20.24,2.13,28,0Z" fill="#ffca1c"/>
          <g>
            <path d="M330.45,188.09c4.57-1.9,4.55,4.13,2.2,4.94-1.92.66-5.32-3.64-2.2-4.94Z" fill="#fff"/>
            <path d="M331,189.18c.42.04,1.88.66,1.92.82.25.86-2.87.83-1.92-.82Z" fill="#ffcb5d"/>
          </g>
        </g>
      </g>
      <g>
        <path d="M371.36,288.01l4.39,42.28c-.22.09-2.65,3.22-2.75,3.84-5.23,1.1-6.72,3.13-10.43,4.39-7.17,2.44-23.76,1-32.39,1.1l-.55-6.59,2.75-.82c-5.19-15.87-21.52-11.42-34.59-12.63v-30.75l73.57-.82Z" fill="#d25191" opacity=".5"/>
        <path d="M406.5,288.01c5.1,4.36,12.14,35.01,18.12,41.73v3.29c-4.3,1.37-8.16,1.26-10.43,6.59-10.65.52-21.45-.38-32.12,0,2.69-2.19,5.53-5.71,1.92-8.78.01-.54.6-.61.55-1.1.98-.21,2.18-.74,3.29-.82,1.22-12.58,1.28-25.29,2.2-37.88.02-.25,1.07-2.58,1.1-3.02h15.37Z" fill="#d25191" opacity=".5"/>
        <path d="M404.85,286.91c1.54.32.94.5,1.65,1.1h-15.37c0-.05-.04-.37,0-1.1,3.96.57,10.07-.77,13.73,0Z" fill="#0a1f35"/>
        <g>
          <path d="M329.63,333.03l.55,6.59c-48.46.58-97.03,0-145.49,0v-6.59h144.95Z" fill="#6b1e57"/>
          <g>
            <path d="M106.72,272.64c.19,5.28-1.87,12.04,4.12,14.27h261.07c-.09.47.26,1.12-.55,1.1l-73.57.82v30.75c13.06,1.2,29.4-3.25,34.59,12.63l-2.75.82h-144.95l-2.2-.82c4.71-15.93,21.82-11.61,34.59-12.63l-.82-31.57h-106.51c-1.26-.3-4.36-3.4-4.67-4.67-.71-2.94-.38-22.26,0-26.08l1.65-1.1c-.62,3.73-.15,12.3,0,16.47Z" fill="#0a1f35"/>
            <polygon points="223.94 288.01 295.86 288.01 296.14 319.58 219 319.85 218.73 288.83 223.94 288.01" fill="#6b1e57"/>
            <path d="M195.94,321.5h123.53c4.6,1.61,8.43,4.62,10.71,9.06l-145.22.82-.55-1.1c2.56-4.54,6.51-7.34,11.53-8.78Z" fill="#fff"/>
          </g>
        </g>
        <g>
          <path d="M112.76,137.03c-.23,0-1.29.44-2.2.55-.58-1.03-3.91-.25-4.39-1.37-.59-1.36.2-28.21.55-29.65.51-2.13,3.64-4.27,5.76-4.67,7.16,1.35,62.66-2.1,63.96.82.3.68.26,8.03-.82,8.51l-59.84.55c-5.52,2.42-2.05,19.81-3.02,25.26Z" fill="#6b1e57"/>
          <path d="M112.76,140.87v127.65l3.84,4.12h-9.88c-.15-4.17-.62-12.74,0-16.47.88-5.28,8.28-15.02-1.1-19.22-.02-.18.02-.37,0-.55l1.1-95.53c1.47-.37,4.54.1,6.04,0Z" fill="#6b1e57"/>
          <path d="M113.86,140.87c-.59,41.98.44,84.02,0,126l2.47,3.57,255.03.55c-.07.81-.18.98-.55,1.65H116.6l-3.84-4.12v-127.65c.05,0,.48-1.47,1.1,0Z" fill="#0a1f35"/>
          <path d="M106.72,140.87l-1.1,95.53c-3.62-30.04,1.57-64.74-.55-95.26.29-.54,1.18-.16,1.65-.27Z" fill="#0a1f35"/>
          <path d="M106.72,256.17l-1.65,1.1c.55-5.58,3.56-9.59,2.75-15.65-.19-1.45-2.01-3.24-2.2-4.67,9.38,4.2,1.98,13.94,1.1,19.22Z" fill="#68bbbe"/>
          <path d="M116.6,272.64h254.2l1.1.82c-.55,4.25.75,9.35,0,13.45H110.84c-5.99-2.24-3.92-9-4.12-14.27h9.88Z" fill="#fff"/>
          <path d="M418.57,264.4l-9.33-47.77c.9,0,.99.96,2.2-.82.68-2.52-2.94-3.76-3.84-5.49-2.98-5.72-1.63-11.8-2.2-17.84,3.27-.28,5.12-4.52,6.59-5.49.56-.37,6.24-2.53,6.59-1.92,1.2,26.03-1.6,53.48,0,79.34Z" fill="#fff"/>
          <path d="M425.71,272.64h-5.49c-.03-.18-.67.5-1.1-2.75l1.1-2.47-.55-83.45,5.76-4.67c.13,31.08.78,62.26.27,93.34Z" fill="#6b1e57"/>
          <path d="M399.36,272.64c2.16.54,4.65,7.22,5.49,9.61.51,1.46,1.85,3.6,0,4.67-3.66-.77-9.76.57-13.73,0,.26-4.57.94-10.63,1.1-14.27,2.03.33,5.32-.45,7.14,0Z" fill="#fff"/>
          <path d="M425.71,272.64c-.07,4.34,1.03,9.83-1.65,13.18-1.16-4.47-2.84-7.69-3.84-13.18h5.49Z" fill="#fff"/>
          <path d="M399.36,270.99c.05.68.87.55,0,1.65-1.81-.45-5.1.33-7.14,0,.02-.43-.59-.58-.55-1.65h7.69Z" fill="#0a1f35"/>
          <path d="M378.49,133.18c-1.56,5.26-2.85,11.6,1.1,16.75,1.59,2.08,4.26,2.52,4.39,2.75.65,1.09-.58,4.91-.55,5.76-6.95,1.13-11.96,6.74-17.57,10.43-.72.47-3.18,1.03-4.12,1.65-1.93,1.28-5.13,6.08-7.14,6.59-5.86,1.48-14.71-3.95-20.59-4.94.28-6.69-.11-19.39-6.04-23.33l13.45-35.96h74.12c1.2,1.15,2.64,2.4,3.02,4.12.43,1.98.4,25.63-.82,26.08-3.33-1.77-7.78-2.49-10.98-4.39-7.78-4.62-13.4-18.61-25.26-11.53-3.26,1.95-2.38,3.89-3.02,6.04Z" fill="#fff"/>
          <g>
            <path d="M183.59,171.61c1.39.7,2.57,2.18,4.12,2.75l108.71-.55c1.25,3.62,2.63,4,5.22,6.04,8.26,6.53,17.86,11.68,26.9,17.02.29.96,4.62,6.5,5.76,6.59.29.02,3.21-1.47,5.76-1.1,8.03,1.16,16.41,2.9,24.43,4.39.87.16.73,1.63.82,1.65,1.53,5.03-1.54,12.03,6.04,12.63-2.3,13.87,1.28,34.97,0,49.96l-255.03-.55-2.47-3.57c.44-41.99-.59-84.03,0-126,.02-1.12-.02-2.19,0-3.29.07-4.52-1.56-23.3,3.02-24.71h59.3l.27,52.43c1.2,4.18,3.85,4.65,7.14,6.31Z" fill="#fff"/>
            <polygon points="212.96 235.85 361.2 235.85 361.47 244.36 212.96 244.64 212.96 235.85" fill="#6b1e57"/>
            <path d="M179.47,235.3c3.32.75,14.76-1,17.02,0,1.08.48,1.14,8.36.82,9.06-.46,1.04-16.39,1.22-17.29.82-1.48-.66-.79-8.23-.55-9.88Z" fill="#ffca1c"/>
            <path d="M159.15,235.3h17.02c3.42,15.09-6.7,8.56-16.47,9.88l-.55-9.88Z" fill="#ffca1c"/>
            <path d="M201.98,236.4c8.2-2.24,6.61,11.66-.55,8.24-3.68-1.76-2.34-7.44.55-8.24Z" fill="#ffca1c"/>
            <g>
              <path d="M216.8,195.77c9.49-1.68,75.94-1.61,85.65,0,15.89,2.64,16.25,27.71-1.65,30.2-12.96,1.8-70.14,1.9-82.9,0-17.41-2.6-16.53-27.47-1.1-30.2Z" fill="#0a1f35"/>
              <path d="M216.25,197.42c25.08,3.34,63.17-4.44,86.75,0,13.49,2.54,13.07,24.4-1.1,26.9-9.41,1.66-74.91,1.6-84.55,0-14.05-2.33-14.7-22.69-1.1-26.9Z" fill="#6b1e57"/>
              <g>
                <path d="M238.22,207.3h37.33c.32.23.49,5.84.27,6.31-.8,1.81-33.17.33-37.61.82v-7.14Z" fill="#fff"/>
                <path d="M225.04,206.2c7.64-.64,6.35,12.67-1.65,8.78-4-1.94-2.56-8.43,1.65-8.78Z" fill="#fff"/>
                <path d="M298.61,208.95c3.73-.33,11.06.04,12.9,4.12l-18.94-.27c-1.91-3.14,3.76-3.64,6.04-3.84Z" fill="#fff"/>
                <path d="M289.28,206.75c2.29.14,1.65,8.9.55,9.33-6.14-.4-5.24-9.62-.55-9.33Z" fill="#fff"/>
              </g>
            </g>
          </g>
        </g>
      </g>
    </g>
    <g>
      <path d="M420.77,60.16c-29.29,21.72-66.26-16.03-42.82-44.47,29.18-35.4,79.29,17.43,42.82,44.47Z" fill="#0a1f35"/>
      <path d="M399.08,5.81c40.35-2.91,43.12,57.19,4.94,59.3-40.02,2.2-41.92-56.63-4.94-59.3Z" fill="#fff"/>
      <g>
        <path d="M398.53,17.34c25.96-3.4,28.52,33.36,6.59,36.24-25.92,3.4-28.66-33.34-6.59-36.24Z" fill="#0a1f35"/>
        <path d="M397.99,18.98c27.54-4.18,27.16,37.39,0,32.94-16.86-2.76-17.14-30.34,0-32.94Z" fill="#fff"/>
        <path d="M400.73,20.08c1.26-1.04,1.23.72,1.37,1.37.63,2.82-.79,11.33,0,13.18.31.71,12.3,5.83,13.18,8.24-.9,1.58-11.85-6.54-13.45-6.86l-4.94,10.98,2.75-9.88c-1.26-.34-10.05,8.2-10.16,5.22-.04-1.15,10.48-6.71,10.98-8.24.68-2.04-.76-13.15.27-14Z" fill="#0a1f35"/>
      </g>
    </g>
  </g>
</svg>